<svg xmlns="http://www.w3.org/2000/svg" viewBox="0 0 24 24" fill="none" stroke="#eaf8f1" stroke-width="1.8" stroke-linecap="round" stroke-linejoin="round">
  <path d="M9.6 3.9c.1-.5.6-.9 1.1-.9h2.6c.5 0 1 .4 1.1.9l.2 1.3c.1.4.3.7.7.9l.2.1c.3.2.7.3 1.1.1l1.2-.5c.5-.2 1.1 0 1.4.5l1.3 2.2c.3.5.2 1.1-.3 1.4l-1 .8c-.3.2-.4.6-.4 1v.6c0 .4.1.7.4 1l1 .8c.4.4.5 1 .3 1.4l-1.3 2.2c-.3.5-.9.7-1.4.5l-1.2-.5c-.4-.1-.8-.1-1.1.1l-.2.1c-.3.2-.6.5-.7.9l-.2 1.3c-.1.5-.6.9-1.1.9h-2.6c-.5 0-1-.4-1.1-.9l-.2-1.3c-.1-.4-.3-.7-.7-.9l-.2-.1c-.3-.2-.7-.3-1.1-.1l-1.2.5c-.5.2-1.1 0-1.4-.5l-1.3-2.2c-.3-.5-.2-1.1.3-1.4l1-.8c.3-.2.4-.6.4-1v-.6c0-.4-.1-.7-.4-1l-1-.8c-.4-.4-.5-1-.3-1.4l1.3-2.2c.3-.5.9-.7 1.4-.5l1.2.5c.4.1.8.1 1.1-.1l.2-.1c.3-.2.6-.5.7-.9l.2-1.3Z"/>
  <circle cx="12" cy="12" r="3"/>
</svg>
